<svg aria-hidden="true" style="position: absolute; width: 0; height: 0; overflow: hidden;" version="1.1" xmlns="http://www.w3.org/2000/svg" xmlns:xlink="http://www.w3.org/1999/xlink">
<defs>
<symbol id="icon-dollar" viewBox="0 0 32 32">
<path d="M15.61 0c-8.605 0-15.61 7.004-15.61 15.613 0 8.606 7.005 15.611 15.61 15.611 8.607 0 15.61-7.004 15.61-15.611-0-8.61-7.003-15.613-15.61-15.613zM15.61 29.72c-7.777 0-14.106-6.328-14.106-14.107s6.328-14.109 14.106-14.109 14.106 6.33 14.106 14.109c0 7.779-6.328 14.107-14.106 14.107z"></path>
<path d="M16.358 14.516c-2.070-0.879-2.796-1.496-2.796-2.709 0-0.973 0.536-2.069 2.367-2.069 1.521 0 2.494 0.549 2.994 0.833l0.593-1.569c-0.714-0.403-1.686-0.786-3.088-0.83v-2.311h-1.498v2.378c-2.164 0.359-3.564 1.855-3.564 3.827 0 2.069 1.498 3.184 3.92 4.137 1.761 0.713 2.536 1.522 2.533 2.828 0.003 1.358-0.989 2.331-2.674 2.331-1.332 0-2.57-0.474-3.4-1.020l-0.57 1.59c0.83 0.594 2.234 1.022 3.61 1.048v2.375h1.498v-2.471c2.447-0.38 3.756-2.141 3.756-4.041 0.001-2.115-1.235-3.328-3.683-4.329z"></path>
</symbol>
<symbol id="icon-delivery" viewBox="0 0 66 32">
<path d="M23.281 20.055c-3.117 0-5.653 2.536-5.653 5.652s2.536 5.652 5.653 5.652c3.117 0 5.653-2.536 5.653-5.652s-2.536-5.652-5.653-5.652zM23.281 27.989c-1.258 0-2.281-1.023-2.281-2.281s1.023-2.281 2.281-2.281c1.257 0 2.281 1.023 2.281 2.281s-1.024 2.281-2.281 2.281z"></path>
<path d="M54.919 20.055c-3.117 0-5.653 2.536-5.653 5.652s2.536 5.652 5.653 5.652c3.117 0 5.653-2.536 5.653-5.652s-2.536-5.652-5.653-5.652zM54.919 27.989c-1.257 0-2.281-1.023-2.281-2.281s1.023-2.281 2.281-2.281 2.281 1.023 2.281 2.281c0 1.257-1.023 2.281-2.281 2.281z"></path>
<path d="M41.629 0h-23.831c-3.253 0-5.9 2.647-5.9 5.9v19.586c0 0.931 0.755 1.685 1.686 1.685s1.686-0.754 1.686-1.685v-19.586c0-1.394 1.134-2.529 2.529-2.529h23.831c1.394 0 2.529 1.135 2.529 2.529v15.372c0 1.394-1.134 2.529-2.529 2.529h-9.814c-0.931 0-1.686 0.754-1.686 1.685s0.755 1.685 1.686 1.685h9.814c3.253 0 5.9-2.647 5.9-5.9v-15.371c0-3.253-2.647-5.9-5.9-5.9z"></path>
<path d="M65.567 17.254l-3.966-8.154c-0.282-0.58-0.871-0.948-1.516-0.948h-9.035c-0.931 0-1.686 0.754-1.686 1.685s0.755 1.685 1.686 1.685h7.981l3.335 6.857v7.105c0 0.931 0.755 1.685 1.686 1.685s1.686-0.755 1.686-1.685v-7.493c-0-0.255-0.059-0.508-0.171-0.738z"></path>
<path d="M7.867 16.537h-7.024c-0.465 0-0.843 0.378-0.843 0.843s0.377 0.843 0.843 0.843h7.024c0.466 0 0.843-0.378 0.843-0.843s-0.377-0.843-0.843-0.843z"></path>
<path d="M7.867 20.838h-3.793c-0.466 0-0.843 0.378-0.843 0.843s0.377 0.843 0.843 0.843h3.793c0.466 0 0.843-0.378 0.843-0.843s-0.377-0.843-0.843-0.843z"></path>
<path d="M39.824 18.507c0.466 0 0.843-0.378 0.843-0.843v-7.797c0-2.517-1.347-3.793-4.003-3.793h-9.27c-0.466 0-0.843 0.377-0.843 0.843s0.377 0.843 0.843 0.843h9.27c1.939 0 2.318 0.772 2.318 2.107v7.797c0 0.465 0.377 0.843 0.843 0.843z"></path>
</symbol>
<symbol id="icon-order" viewBox="0 0 42 32">
<path d="M35.701 0c-0.145 0-0.289 0.010-0.431 0.022-0.035-0.010-0.070-0.022-0.108-0.022h-20.797c-2.796 0-5.070 2.274-5.070 5.070v21.34h-8.873c-0.234 0-0.422 0.189-0.422 0.422 0 2.795 2.274 5.070 5.070 5.070 0.104 0 0.196-0.042 0.27-0.104 0.074 0.062 0.165 0.104 0.269 0.104h20.797c2.796 0 5.070-2.275 5.070-5.070 0-0.038-0.012-0.073-0.021-0.107 0.009-0.035 0.021-0.069 0.021-0.108v-21.125h8.873c0.233 0 0.422-0.189 0.422-0.422-0-2.796-2.274-5.070-5.070-5.070zM26.406 31.058c-2.33 0-4.225-1.895-4.225-4.225 0-0.234-0.189-0.422-0.422-0.422h-11.619v-21.34c0-2.33 1.895-4.225 4.225-4.225h18.54c-1.368 0.909-2.273 2.462-2.273 4.225v21.547c0 0.038 0.012 0.073 0.021 0.107-0.009 0.035-0.021 0.069-0.021 0.107 0 2.33-1.895 4.226-4.225 4.226z"></path>
<path d="M26.934 22.708h-11.83c-0.234 0-0.422 0.189-0.422 0.422s0.189 0.422 0.422 0.422h11.83c0.233 0 0.422-0.189 0.422-0.422s-0.189-0.422-0.422-0.422z"></path>
<path d="M26.934 18.485h-11.83c-0.234 0-0.422 0.189-0.422 0.423s0.189 0.422 0.422 0.422h11.83c0.233 0 0.422-0.189 0.422-0.422s-0.189-0.423-0.422-0.423z"></path>
<path d="M26.934 14.258h-11.83c-0.234 0-0.422 0.189-0.422 0.422s0.189 0.422 0.422 0.422h11.83c0.233 0 0.422-0.189 0.422-0.422s-0.189-0.422-0.422-0.422z"></path>
<path d="M26.934 10.034h-11.83c-0.234 0-0.422 0.189-0.422 0.422s0.189 0.423 0.422 0.423h11.83c0.233 0 0.422-0.189 0.422-0.423s-0.189-0.422-0.422-0.422z"></path>
<path d="M26.934 5.811h-11.83c-0.234 0-0.422 0.189-0.422 0.422s0.189 0.422 0.422 0.422h11.83c0.233 0 0.422-0.189 0.422-0.422s-0.189-0.422-0.422-0.422z"></path>
</symbol>
<symbol id="icon-shop" viewBox="0 0 34 32">
<path d="M33.732 13.148c-5.223 11.062-6.923 11.062-7.937 11.062h-9.99c-3.499 0-6.18-2.058-6.83-5.245-0.020-0.097-1.998-9.806-2.504-12.518-0.248-1.33-0.88-2.216-3.153-2.216-1.035 0-1.873-0.838-1.873-1.873s0.838-1.873 1.873-1.873c3.771 0 6.199 1.873 6.835 5.275 0.501 2.683 2.472 12.36 2.492 12.458 0.398 1.956 2.15 2.248 3.159 2.248h9.496c1.020-1.096 3.345-5.321 5.042-8.917 0.442-0.935 1.56-1.334 2.494-0.894 0.936 0.441 1.336 1.557 0.894 2.494zM14.557 25.458c-1.724 0-3.122 1.397-3.122 3.122s1.397 3.122 3.122 3.122c1.724 0 3.122-1.397 3.122-3.122s-1.397-3.122-3.122-3.122zM25.795 25.458c-1.724 0-3.122 1.397-3.122 3.122s1.397 3.122 3.122 3.122c1.725 0 3.122-1.397 3.122-3.122s-1.397-3.122-3.122-3.122zM19.755 15.274c0.125 0.101 0.279 0.15 0.432 0.15s0.305-0.049 0.432-0.15c0.125-0.099 3.531-3.421 5.389-6.186 0.144-0.215 0.157-0.489 0.035-0.717-0.119-0.226-0.356-0.368-0.612-0.368h-2.78c0 0-0.271-5.358-0.448-5.607-0.257-0.367-1.32-0.617-2.018-0.617-0.7 0-1.782 0.25-2.040 0.617-0.176 0.247-0.41 5.607-0.41 5.607h-2.816c-0.257 0-0.493 0.142-0.614 0.368-0.121 0.227-0.107 0.503 0.035 0.717 1.859 2.766 5.291 6.087 5.414 6.186z"></path>
</symbol>
<symbol id="icon-share" viewBox="0 0 30 32">
<path d="M23.303 19.883c-1.453 0-2.769 0.601-3.713 1.567l-8.161-4.764c0.134-0.46 0.209-0.945 0.209-1.448 0-0.48-0.070-0.942-0.192-1.383l8.099-4.588c0.947 0.994 2.28 1.616 3.758 1.616 2.866 0 5.199-2.332 5.199-5.2-0-2.867-2.333-5.198-5.199-5.198s-5.199 2.332-5.199 5.198c0 0.48 0.070 0.942 0.193 1.384l-8.099 4.589c-0.947-0.994-2.28-1.617-3.758-1.617-2.867 0-5.198 2.332-5.198 5.199 0 2.867 2.332 5.199 5.198 5.199 1.454 0 2.768-0.601 3.714-1.567l8.16 4.764c-0.133 0.461-0.21 0.946-0.21 1.448 0 2.867 2.333 5.199 5.199 5.199 2.867 0 5.2-2.331 5.2-5.199s-2.333-5.2-5.199-5.2z"></path>
</symbol>
<symbol id="icon-star" viewBox="0 0 32 32">
<path d="M32 12.408l-11.056-1.607-4.944-10.018-4.944 10.018-11.056 1.607 8 7.798-1.889 11.011 9.889-5.199 9.889 5.199-1.889-11.011 8-7.798z"></path>
</symbol>
<symbol id="icon-arrow-left" viewBox="0 0 32 32">
<path d="M12.586 27.414l-10-10c-0.781-0.781-0.781-2.047 0-2.828l10-10c0.781-0.781 2.047-0.781 2.828 0s0.781 2.047 0 2.828l-6.586 6.586h19.172c1.105 0 2 0.895 2 2s-0.895 2-2 2h-19.172l6.586 6.586c0.39 0.39 0.586 0.902 0.586 1.414s-0.195 1.024-0.586 1.414c-0.781 0.781-2.047 0.781-2.828 0z"></path>
</symbol>
<symbol id="icon-right-arrow" viewBox="0 0 48 32">
<path fill="none" stroke="#feb918" style="stroke: var(--color1, #feb918)" stroke-linejoin="miter" stroke-linecap="butt" stroke-miterlimit="10" stroke-width="2.6667" d="M43.977 16.461l-13.333-12.499c-0.171-0.157-0.395-0.244-0.628-0.244s-0.456 0.087-0.628 0.244c-0.082 0.075-0.147 0.166-0.191 0.267s-0.068 0.211-0.068 0.322 0.023 0.22 0.068 0.322c0.045 0.101 0.11 0.193 0.191 0.267l11.816 11.077h-38.739c-0.113-0.006-0.227 0.010-0.334 0.049s-0.204 0.099-0.287 0.177c-0.083 0.078-0.148 0.172-0.193 0.276s-0.068 0.217-0.068 0.33c0 0.114 0.023 0.226 0.068 0.33s0.111 0.198 0.193 0.276c0.083 0.078 0.18 0.138 0.287 0.177s0.22 0.056 0.334 0.049h38.744l-11.816 11.077c-0.082 0.075-0.147 0.166-0.191 0.267s-0.068 0.211-0.068 0.322c0 0.111 0.023 0.22 0.068 0.322s0.11 0.193 0.191 0.267c0.172 0.157 0.396 0.244 0.628 0.244s0.457-0.087 0.628-0.244l13.333-12.501c0.081-0.075 0.146-0.167 0.19-0.268s0.066-0.211 0.066-0.322c-0.001-0.111-0.024-0.22-0.069-0.322s-0.111-0.192-0.193-0.267v0z"></path>
</symbol>
<symbol id="icon-left-arrow" viewBox="0 0 48 32">
<path fill="none" stroke="#feb918" style="stroke: var(--color1, #feb918)" stroke-linejoin="miter" stroke-linecap="butt" stroke-miterlimit="10" stroke-width="2.6667" d="M4.023 16.461l13.333-12.499c0.172-0.157 0.396-0.244 0.628-0.244s0.456 0.087 0.628 0.244c0.082 0.075 0.147 0.166 0.191 0.267s0.068 0.211 0.068 0.322c0 0.111-0.023 0.22-0.068 0.322s-0.11 0.193-0.191 0.267l-11.816 11.077h38.739c0.113-0.006 0.227 0.010 0.334 0.049s0.204 0.099 0.287 0.177c0.083 0.078 0.148 0.172 0.193 0.276s0.068 0.217 0.068 0.33c0 0.114-0.023 0.226-0.068 0.33s-0.111 0.198-0.193 0.276c-0.082 0.078-0.18 0.138-0.287 0.177s-0.22 0.056-0.334 0.049h-38.744l11.816 11.077c0.082 0.075 0.147 0.166 0.191 0.267s0.068 0.211 0.068 0.322c0 0.111-0.023 0.22-0.068 0.322s-0.11 0.193-0.191 0.267c-0.172 0.157-0.396 0.244-0.628 0.244s-0.456-0.087-0.628-0.244l-13.333-12.501c-0.081-0.075-0.146-0.167-0.19-0.268s-0.067-0.211-0.066-0.322c0.001-0.111 0.024-0.22 0.069-0.322s0.111-0.192 0.193-0.267v0z"></path>
</symbol>
<symbol id="icon-mail" viewBox="0 0 36 32">
<path fill="#fff" style="fill: var(--color1, #fff)" d="M4.5 4h27c0.398 0 0.779 0.14 1.061 0.391s0.439 0.589 0.439 0.943v21.333c0 0.354-0.158 0.693-0.439 0.943s-0.663 0.391-1.061 0.391h-27c-0.398 0-0.779-0.14-1.061-0.391s-0.439-0.589-0.439-0.943v-21.333c0-0.354 0.158-0.693 0.439-0.943s0.663-0.391 1.061-0.391zM18.090 15.577l-9.618-7.26-1.942 2.032 11.58 8.74 11.371-8.747-1.962-2.017-9.429 7.252z"></path>
</symbol>
<symbol id="icon-phone" viewBox="0 0 32 32">
<path d="M22 20c-2 2-2 4-4 4s-4-2-6-4-4-4-4-6 2-2 4-4-4-8-6-8-6 6-6 6c0 4 4.109 12.109 8 16s12 8 16 8c0 0 6-4 6-6s-6-8-8-6z"></path>
</symbol>
<symbol id="icon-facebook" viewBox="0 0 32 32">
<path d="M19 6h5v-6h-5c-3.86 0-7 3.14-7 7v3h-4v6h4v16h6v-16h5l1-6h-6v-3c0-0.542 0.458-1 1-1z"></path>
</symbol>
<symbol id="icon-instagram" viewBox="0 0 32 32">
<path d="M16 2.881c4.275 0 4.781 0.019 6.462 0.094 1.563 0.069 2.406 0.331 2.969 0.55 0.744 0.288 1.281 0.638 1.837 1.194 0.563 0.563 0.906 1.094 1.2 1.838 0.219 0.563 0.481 1.412 0.55 2.969 0.075 1.688 0.094 2.194 0.094 6.463s-0.019 4.781-0.094 6.463c-0.069 1.563-0.331 2.406-0.55 2.969-0.288 0.744-0.637 1.281-1.194 1.837-0.563 0.563-1.094 0.906-1.837 1.2-0.563 0.219-1.413 0.481-2.969 0.55-1.688 0.075-2.194 0.094-6.463 0.094s-4.781-0.019-6.463-0.094c-1.563-0.069-2.406-0.331-2.969-0.55-0.744-0.288-1.281-0.637-1.838-1.194-0.563-0.563-0.906-1.094-1.2-1.837-0.219-0.563-0.481-1.413-0.55-2.969-0.075-1.688-0.094-2.194-0.094-6.463s0.019-4.781 0.094-6.463c0.069-1.563 0.331-2.406 0.55-2.969 0.288-0.744 0.638-1.281 1.194-1.838 0.563-0.563 1.094-0.906 1.838-1.2 0.563-0.219 1.412-0.481 2.969-0.55 1.681-0.075 2.188-0.094 6.463-0.094zM16 0c-4.344 0-4.887 0.019-6.594 0.094-1.7 0.075-2.869 0.35-3.881 0.744-1.056 0.412-1.95 0.956-2.837 1.85-0.894 0.888-1.438 1.781-1.85 2.831-0.394 1.019-0.669 2.181-0.744 3.881-0.075 1.713-0.094 2.256-0.094 6.6s0.019 4.887 0.094 6.594c0.075 1.7 0.35 2.869 0.744 3.881 0.413 1.056 0.956 1.95 1.85 2.837 0.887 0.887 1.781 1.438 2.831 1.844 1.019 0.394 2.181 0.669 3.881 0.744 1.706 0.075 2.25 0.094 6.594 0.094s4.888-0.019 6.594-0.094c1.7-0.075 2.869-0.35 3.881-0.744 1.050-0.406 1.944-0.956 2.831-1.844s1.438-1.781 1.844-2.831c0.394-1.019 0.669-2.181 0.744-3.881 0.075-1.706 0.094-2.25 0.094-6.594s-0.019-4.887-0.094-6.594c-0.075-1.7-0.35-2.869-0.744-3.881-0.394-1.063-0.938-1.956-1.831-2.844-0.887-0.887-1.781-1.438-2.831-1.844-1.019-0.394-2.181-0.669-3.881-0.744-1.712-0.081-2.256-0.1-6.6-0.1v0z"></path>
<path d="M16 7.781c-4.537 0-8.219 3.681-8.219 8.219s3.681 8.219 8.219 8.219 8.219-3.681 8.219-8.219c0-4.537-3.681-8.219-8.219-8.219zM16 21.331c-2.944 0-5.331-2.387-5.331-5.331s2.387-5.331 5.331-5.331c2.944 0 5.331 2.387 5.331 5.331s-2.387 5.331-5.331 5.331z"></path>
<path d="M26.462 7.456c0 1.060-0.859 1.919-1.919 1.919s-1.919-0.859-1.919-1.919c0-1.060 0.859-1.919 1.919-1.919s1.919 0.859 1.919 1.919z"></path>
</symbol>
<symbol id="icon-twitter" viewBox="0 0 32 32">
<path d="M32 7.075c-1.175 0.525-2.444 0.875-3.769 1.031 1.356-0.813 2.394-2.1 2.887-3.631-1.269 0.75-2.675 1.3-4.169 1.594-1.2-1.275-2.906-2.069-4.794-2.069-3.625 0-6.563 2.938-6.563 6.563 0 0.512 0.056 1.012 0.169 1.494-5.456-0.275-10.294-2.888-13.531-6.862-0.563 0.969-0.887 2.1-0.887 3.3 0 2.275 1.156 4.287 2.919 5.463-1.075-0.031-2.087-0.331-2.975-0.819 0 0.025 0 0.056 0 0.081 0 3.181 2.263 5.838 5.269 6.437-0.55 0.15-1.131 0.231-1.731 0.231-0.425 0-0.831-0.044-1.237-0.119 0.838 2.606 3.263 4.506 6.131 4.563-2.25 1.762-5.075 2.813-8.156 2.813-0.531 0-1.050-0.031-1.569-0.094 2.913 1.869 6.362 2.95 10.069 2.95 12.075 0 18.681-10.006 18.681-18.681 0-0.287-0.006-0.569-0.019-0.85 1.281-0.919 2.394-2.075 3.275-3.394z"></path>
</symbol>
<symbol id="icon-youtube" viewBox="0 0 32 32">
<path d="M31.681 9.6c0 0-0.313-2.206-1.275-3.175-1.219-1.275-2.581-1.281-3.206-1.356-4.475-0.325-11.194-0.325-11.194-0.325h-0.012c0 0-6.719 0-11.194 0.325-0.625 0.075-1.987 0.081-3.206 1.356-0.963 0.969-1.269 3.175-1.269 3.175s-0.319 2.588-0.319 5.181v2.425c0 2.587 0.319 5.181 0.319 5.181s0.313 2.206 1.269 3.175c1.219 1.275 2.819 1.231 3.531 1.369 2.563 0.244 10.881 0.319 10.881 0.319s6.725-0.012 11.2-0.331c0.625-0.075 1.988-0.081 3.206-1.356 0.962-0.969 1.275-3.175 1.275-3.175s0.319-2.587 0.319-5.181v-2.425c-0.006-2.588-0.325-5.181-0.325-5.181zM12.694 20.15v-8.994l8.644 4.513-8.644 4.481z"></path>
</symbol>
<symbol id="icon-send-plane" viewBox="0 0 32 32">
<path fill="#fff" style="fill: var(--color1, #fff)" d="M4 17.333h8v-2.667h-8v-12.205c0-0.116 0.030-0.23 0.088-0.33s0.14-0.185 0.24-0.244c0.1-0.059 0.213-0.091 0.329-0.093s0.23 0.027 0.332 0.082l24.616 13.539c0.105 0.058 0.192 0.142 0.252 0.245s0.093 0.22 0.093 0.339-0.032 0.236-0.093 0.339c-0.061 0.103-0.148 0.187-0.252 0.245l-24.616 13.539c-0.101 0.056-0.216 0.084-0.332 0.083s-0.229-0.034-0.329-0.093c-0.1-0.059-0.182-0.143-0.24-0.243s-0.088-0.214-0.088-0.33v-12.205z"></path>
</symbol>
<symbol id="icon-shield" viewBox="0 0 26 32">
<path fill="#ef9737" style="fill: var(--color1, #ef9737)" d="M25.53 5c-5.274 0-9.314-1.56-12.73-5-3.416 3.44-7.456 5-12.729 5 0 8.958-1.79 21.789 12.729 27 14.521-5.211 12.731-18.043 12.731-27zM11.745 20.763l-4.241-4.392 1.899-1.966 2.342 2.426 4.452-4.609 1.899 1.966-6.351 6.576z"></path>
</symbol>
<symbol id="icon-deliver" viewBox="0 0 37 32">
<path fill="#ef9737" style="fill: var(--color1, #ef9737)" d="M9.302 20.24c-3.206 0-5.816 2.61-5.816 5.816s2.61 5.817 5.816 5.817 5.817-2.61 5.817-5.817c0.007-3.206-2.603-5.816-5.817-5.816z"></path>
<path fill="#ef9737" style="fill: var(--color1, #ef9737)" d="M26.73 20.24c-3.206 0-5.817 2.61-5.817 5.816s2.61 5.817 5.817 5.817c3.206 0 5.816-2.61 5.816-5.817s-2.61-5.816-5.816-5.816z"></path>
<path fill="#ef9737" style="fill: var(--color1, #ef9737)" d="M24.095 6.010l-1.802 2.794h2.132v-2.647c0-0.235 0.007-0.5 0.022-0.802h-0.037c-0.051 0.14-0.162 0.36-0.316 0.654z"></path>
<path fill="#ef9737" style="fill: var(--color1, #ef9737)" d="M27.119 10.118h-1.008v1.787h-1.691v-1.787h-3.662v-1.177l3.53-5.441h1.824v5.302h1.008v1.316zM19.795 10.368v1.537h-5.53v-1.441l2.412-2.302c0.485-0.463 0.824-0.853 1.022-1.169s0.294-0.647 0.294-0.993c0-0.772-0.419-1.162-1.25-1.162-0.721 0-1.419 0.287-2.074 0.86v-1.632c0.728-0.471 1.559-0.706 2.478-0.706 0.86 0 1.529 0.213 2.015 0.647s0.721 1.015 0.721 1.75c0 0.978-0.588 1.993-1.765 3.044l-1.728 1.537v0.037h3.405v-0.007zM34.531 0h-24.604c-0.485 0-0.934 0.228-1.213 0.625l-8.427 11.662c-0.184 0.257-0.287 0.566-0.287 0.882v9.148c0 0.588 0.338 1.088 0.831 1.338 1.052-3.691 4.449-6.405 8.478-6.405 4.081 0 7.523 2.794 8.523 6.567h0.382c1-3.772 4.434-6.567 8.522-6.567 4.022 0 7.42 2.713 8.479 6.405 0.493-0.25 0.831-0.75 0.831-1.338v-20.81c-0.015-0.838-0.684-1.507-1.515-1.507z"></path>
</symbol>
<symbol id="icon-money" viewBox="0 0 32 32">
<path fill="#ef9737" style="fill: var(--color1, #ef9737)" d="M31.002 5.844c-0.045-0.234-0.27-0.387-0.504-0.342l-2.795 0.535c-0.765 0.147-1.416 0.623-1.787 1.309l-0.013 0.024c-0.784 1.445-1.903 2.718-3.238 3.681-0.454 0.328-0.885 0.695-1.282 1.092l-4.042 4.042c-0.511 0.388-1.233 0.34-1.689-0.115-0.243-0.243-0.377-0.566-0.377-0.91s0.134-0.668 0.377-0.911l2.92-2.92c0.995-0.995 1.223-2.53 0.556-3.733-0.548-0.989-1.589-1.603-2.717-1.603-0.061 0-0.346 0.015-0.346 0.015-0.756 0.047-1.467 0.368-2.002 0.904l-1.888 1.888c-0.447 0.447-0.703 1.042-0.721 1.675l-0.036 1.31-1.935 1.935 0.217-5.324c0.008-0.191 0.085-0.373 0.218-0.51l6.242-6.444c0.373-0.372 0.868-0.576 1.395-0.576h7.531c0.238 0 0.431-0.193 0.431-0.431s-0.193-0.431-0.431-0.431h-7.531c-0.758 0-1.471 0.295-2.007 0.831-0.002 0.002-0.003 0.003-0.005 0.005l-6.244 6.446c-0.281 0.29-0.445 0.673-0.461 1.076l-0.255 6.258-8.456 8.456c-0.081 0.081-0.126 0.191-0.126 0.305s0.045 0.224 0.126 0.305l7.138 7.138c0.084 0.084 0.195 0.126 0.305 0.126s0.221-0.042 0.305-0.126l14.672-14.672c0.168-0.168 0.168-0.441 0-0.61l-1.671-1.671 1.117-1.116c0.364-0.364 0.76-0.701 1.177-1.002 1.439-1.039 2.646-2.411 3.492-3.97l0.013-0.024c0.247-0.456 0.681-0.774 1.191-0.872l2.795-0.535c0.234-0.045 0.387-0.271 0.342-0.505zM15.041 13.637c-0.406 0.406-0.63 0.946-0.63 1.521s0.224 1.114 0.63 1.52c0.417 0.417 0.968 0.63 1.521 0.63 0.468 0 0.938-0.152 1.33-0.461 0.013-0.011 0.026-0.022 0.038-0.034l1.242-1.242 0.517 0.517-11.877 11.877-4.831-4.831 11.877-11.877 1.281 1.281-1.099 1.099zM14.671 7.519c0.387-0.387 0.901-0.619 1.445-0.653 0 0 0.25-0.013 0.294-0.013 0.814 0 1.567 0.444 1.963 1.159 0.482 0.869 0.312 1.981-0.412 2.705l-0.118 0.118-2.435-2.435c-0.168-0.168-0.441-0.168-0.61 0l-0.844 0.844v-1.009l0.717-0.717zM12.314 10.495c0.011-0.411 0.178-0.798 0.469-1.089l0.309-0.309v1.009l-0.789 0.789 0.011-0.4zM21.631 15.843l-14.062 14.062-6.529-6.529 14.062-14.062 2.13 2.13-0.483 0.483-1.586-1.586c-0.168-0.168-0.441-0.168-0.61 0l-12.486 12.486c-0.168 0.168-0.168 0.441 0 0.61l5.44 5.44c0.084 0.084 0.195 0.126 0.305 0.126s0.221-0.042 0.305-0.126l12.486-12.486c0.168-0.168 0.168-0.441 0-0.61l-0.821-0.822 0.483-0.483 1.366 1.366z"></path>
<path fill="#ef9737" style="fill: var(--color1, #ef9737)" d="M12.752 18.198c-1.205-1.205-2.771-1.528-3.564-0.735s-0.471 2.359 0.735 3.564c0.76 0.76 1.663 1.169 2.425 1.169 0.447 0 0.846-0.141 1.139-0.434 0.408-0.408 0.535-1.023 0.358-1.734-0.157-0.633-0.546-1.283-1.093-1.83zM12.877 21.153c-0.381 0.381-1.438 0.173-2.345-0.735s-1.116-1.964-0.735-2.345c0.12-0.12 0.306-0.181 0.533-0.181 0.497 0 1.189 0.293 1.812 0.916 0.432 0.432 0.747 0.953 0.866 1.429 0.099 0.399 0.052 0.734-0.131 0.916z"></path>
</symbol>
</defs>
</svg>
